<?xml version="1.0" encoding="UTF-8"?><svg id="Ebene_1" xmlns="http://www.w3.org/2000/svg" viewBox="0 0 185.66074 566.92913"><defs><style>.cls-1{fill:#041c32;stroke-width:0px;}</style></defs><g id="Secondary_Logo_Bridging_Gaps-logo"><path class="cls-1" d="M179.07277,55.96693c-4.19228-11.19335-10.18151-21.17693-17.96699-29.34491-7.78582-8.47064-17.36823-14.82362-28.74758-19.66399C120.97885,2.11766,108.402,0,94.02821,0s-26.65127,2.11766-38.03061,6.65551c-11.37902,4.53785-21.26114,11.19335-29.64571,19.66399-8.3847,8.7732-14.67323,19.3615-19.46451,32.06732C2.09616,71.09298,0,85.61397,0,102.25282v362.11868c0,16.94154,2.09621,31.76788,6.58801,44.47238,4.4918,12.7045,10.1814,23.2938,17.66771,32.06625,7.4863,8.47075,16.17025,15.12805,26.35176,19.36175,10.18151,4.23704,20.96176,6.65725,32.34111,6.65725,16.17039,0,28.44786-3.32862,36.53306-9.68088,8.0852-6.35225,13.77503-14.21963,16.4701-23.9005h6.58797v28.43926h43.12104v-128.5734h-107.80291v45.67917h60.48926c0,12.70784-3.5932,22.99214-11.07964,30.5578-7.48643,7.56233-17.96732,11.49437-32.04139,11.49437-31.74202,0-47.31365-19.66346-47.31365-58.68867V105.88315c0-22.08434,4.19228-37.51308,12.87657-46.58858,8.68395-9.07583,19.76392-13.61357,32.93986-13.61357,14.07408,0,25.15405,3.93269,32.93954,11.79841,7.7858,7.86571,11.67872,19.36143,11.67872,34.79017v165.78278h47.31365V92.26958c0-12.70583-2.09631-24.80693-5.98921-36.00028l-.59875-.30236Z"/></g></svg>