<svg width="266" height="267" viewBox="0 0 266 267" fill="none" xmlns="http://www.w3.org/2000/svg">
<path d="M71.9316 92.4824H124.638V106.631H105.693V157.042H124.638V171.191H71.9316V157.042H90.8758V106.631H71.9316V92.4824Z" fill="black"/>
<path d="M177.906 163.789H179.969V92.4824H194.787V171.191H165.714L156.524 99.8848H154.46V171.191H139.643V92.4824H168.715L177.906 163.789Z" fill="black"/>
<path d="M230.893 131.368H264.655V171.191H251.15V162.383H249.087C248.149 165.288 246.461 167.724 243.929 169.786C241.397 171.754 237.552 172.784 232.488 172.784C228.924 172.784 225.548 172.128 222.359 170.723C219.17 169.411 216.451 167.35 214.106 164.726C211.762 162.102 209.98 158.729 208.573 154.794C207.166 150.858 206.51 146.267 206.51 141.02V122.561C206.51 117.501 207.26 112.909 208.667 108.974C210.167 105.038 212.137 101.759 214.763 99.0416C217.389 96.3243 220.483 94.2629 224.047 92.9511C227.611 91.5456 231.644 90.8896 235.958 90.8896C240.272 90.8896 244.492 91.6393 247.962 93.0448C251.526 94.544 254.527 96.5117 256.965 99.1353C259.403 101.759 261.279 104.757 262.592 108.224C263.905 111.691 264.468 115.439 264.468 119.375V120.687H249.65V119.375C249.65 114.69 248.431 111.035 245.992 108.599C243.554 106.163 240.084 104.945 235.676 104.945C231.268 104.945 227.986 106.35 225.36 109.161C222.734 111.972 221.327 116.751 221.327 123.591V140.27C221.327 152.451 226.298 158.448 236.145 158.448C240.553 158.448 243.929 157.23 246.18 154.887C248.431 152.545 249.65 149.359 249.65 145.424H230.706V131.275L230.893 131.368Z" fill="black"/>
<path d="M111.696 248.401H84.874L81.0289 265.267H65.4609L84.2175 186.559H112.165L130.921 265.267H115.353L111.508 248.401H111.696ZM88.0627 234.252H108.414L99.3166 193.961H97.2534L88.0627 234.252Z" fill="black"/>
<path d="M155.679 235.564V265.267H140.861V186.559H171.716C175.749 186.559 179.312 187.215 182.313 188.526C185.314 189.838 187.847 191.525 189.816 193.68C191.785 195.835 193.286 198.271 194.318 200.989C195.349 203.706 195.818 206.517 195.818 209.328V212.045C195.818 214.95 195.349 217.855 194.318 220.666C193.286 223.477 191.785 226.007 189.816 228.162C187.847 230.411 185.314 232.191 182.313 233.503C179.312 234.815 175.749 235.564 171.716 235.564H155.773H155.679ZM155.679 221.415H170.215C173.498 221.415 176.124 220.478 177.999 218.698C179.875 216.918 180.907 214.575 180.907 211.764V210.452C180.907 207.641 179.969 205.299 177.999 203.518C176.124 201.738 173.498 200.801 170.215 200.801H155.679V221.509V221.415Z" fill="black"/>
<path d="M249.557 210.546C249.557 207.36 248.337 204.643 245.899 202.301C243.461 199.958 239.991 198.834 235.583 198.834C231.832 198.834 228.83 199.583 226.673 201.176C224.516 202.769 223.391 204.831 223.391 207.454C223.391 208.766 223.672 209.984 224.141 211.108C224.704 212.233 225.548 213.17 226.861 214.013C228.174 214.857 229.862 215.606 232.019 216.356C234.176 217.012 236.896 217.668 240.178 218.23C248.431 219.729 254.715 222.259 259.122 225.726C263.53 229.193 265.687 234.44 265.687 241.374V242.686C265.687 246.34 265.031 249.713 263.718 252.618C262.405 255.616 260.529 258.146 257.997 260.208C255.559 262.269 252.558 263.956 248.994 265.08C245.43 266.205 241.491 266.767 237.083 266.767C231.925 266.767 227.33 266.017 223.391 264.612C219.452 263.206 216.17 261.145 213.544 258.521C210.918 255.898 208.948 252.899 207.542 249.432C206.135 245.965 205.479 242.123 205.479 238.001V234.627H220.296V237.345C220.296 242.03 221.703 245.872 224.423 248.683C227.142 251.494 231.456 252.899 237.177 252.899C241.679 252.899 245.055 251.962 247.212 249.994C249.369 248.027 250.494 245.684 250.494 243.06C250.494 241.749 250.307 240.531 249.838 239.406C249.369 238.282 248.619 237.157 247.493 236.22C246.368 235.283 244.867 234.44 242.898 233.69C240.929 232.941 238.49 232.285 235.489 231.816C231.55 231.16 227.893 230.223 224.61 229.193C221.328 228.068 218.421 226.663 215.982 224.883C213.544 223.102 211.668 220.853 210.261 218.136C208.855 215.419 208.198 212.139 208.198 208.204V207.548C208.198 204.362 208.855 201.364 210.168 198.646C211.481 195.929 213.356 193.493 215.701 191.525C218.045 189.464 220.953 187.964 224.235 186.84C227.611 185.716 231.269 185.153 235.395 185.153C240.084 185.153 244.211 185.809 247.775 187.121C251.338 188.433 254.433 190.213 256.872 192.462C259.31 194.711 261.186 197.334 262.405 200.239C263.624 203.144 264.28 206.236 264.28 209.422V213.451H249.463V210.734L249.557 210.546Z" fill="black"/>
<path d="M0.65625 64.5599H8.06511V14.1488H0.65625V0H35.1684C38.9197 0 42.2021 0.562206 45.1093 1.59292C48.0166 2.62363 50.455 4.02914 52.4244 5.90316C54.3938 7.68348 55.8944 9.8386 56.926 12.3685C57.9576 14.8984 58.4265 17.6158 58.4265 20.5205V21.8323C58.4265 26.33 57.2074 29.8906 54.6752 32.6079C52.1431 35.3252 48.9545 37.1993 45.2031 38.23V40.2914C49.0482 41.3221 52.2369 43.1961 54.6752 46.0072C57.1136 48.8182 58.4265 52.3788 58.4265 56.8765V58.1883C58.4265 61.093 57.9576 63.8103 56.926 66.3403C55.8944 68.8702 54.3938 71.0253 52.4244 72.8993C50.455 74.7733 48.0166 76.1788 45.1093 77.2096C42.2021 78.2403 38.9197 78.8025 35.1684 78.8025H0.65625V64.6536V64.5599ZM22.9766 32.1394H33.7616C36.9502 32.1394 39.4824 31.4835 41.4518 30.1717C43.4213 28.8599 44.3591 26.6111 44.3591 23.5189V22.863C44.3591 19.6772 43.4213 17.5221 41.4518 16.2103C39.4824 14.8984 36.9502 14.2425 33.7616 14.2425H22.9766V32.2331V32.1394ZM22.9766 64.5599H33.7616C36.9502 64.5599 39.4824 63.904 41.4518 62.4985C43.4213 61.1867 44.3591 58.9379 44.3591 55.752V55.0961C44.3591 51.9103 43.4213 49.6615 41.4518 48.3497C39.4824 47.0379 36.9502 46.2883 33.7616 46.2883H22.9766V64.4662V64.5599Z" fill="black"/>
<path d="M125.481 78.7088H110.664V55.0961C110.664 53.3158 110.195 51.8166 109.257 50.6922C108.319 49.5678 106.725 49.0056 104.568 49.0056H87.4994V78.7088H72.6816V0H102.88C106.912 0 110.476 0.562206 113.571 1.68662C116.666 2.81103 119.198 4.40394 121.261 6.37166C123.324 8.33938 124.919 10.6819 125.95 13.3055C127.076 15.9292 127.545 18.7402 127.545 21.7386V24.4559C127.545 27.6418 126.701 30.7339 124.919 33.5449C123.137 36.356 120.511 38.5111 116.947 40.0103V42.0717C119.573 42.3528 121.636 43.3835 123.231 45.0701C124.731 46.7568 125.575 49.0056 125.575 51.6292V78.8025L125.481 78.7088ZM87.4056 34.8567H101.567C105.131 34.8567 107.944 34.0134 109.82 32.3268C111.695 30.6402 112.633 28.2977 112.633 25.2055V23.8937C112.633 21.2701 111.695 19.0213 109.82 17.0536C107.944 15.1796 105.224 14.1488 101.567 14.1488H87.4056V34.8567Z" fill="black"/>
<path d="M141.33 0H194.036V14.1488H175.092V64.5599H194.036V78.7088H141.33V64.5599H160.274V14.1488H141.33V0Z" fill="black"/>
<path d="M207.26 0H235.864C245.617 0 252.838 2.24882 257.621 6.84017C262.31 11.3378 264.749 18.3654 264.749 27.9229V50.8796C264.749 60.4371 262.404 67.4647 257.621 71.9623C252.932 76.46 245.617 78.8025 235.864 78.8025H207.26V64.5599H214.669V14.1488H207.26V0ZM235.864 64.5599C241.022 64.5599 244.679 63.3418 246.742 60.9056C248.806 58.4694 249.837 54.6276 249.837 49.4741V27.9229C249.837 23.4252 248.806 20.052 246.742 17.7095C244.679 15.367 241.022 14.2425 235.864 14.2425H229.58V64.6536H235.864V64.5599Z" fill="black"/>
<path d="M56.0822 108.599C54.7692 105.132 52.8935 102.04 50.4552 99.5103C48.0168 96.8867 45.0158 94.919 41.452 93.4198C37.8883 91.9206 33.9494 91.2646 29.4478 91.2646C24.9463 91.2646 21.1012 91.9206 17.5374 93.3261C13.9737 94.7316 10.8788 96.793 8.25287 99.4166C5.62695 102.134 3.65749 105.413 2.15697 109.349C0.65644 113.284 0 117.782 0 122.936V235.096C0 240.343 0.656492 244.934 2.06324 248.87C3.46998 252.805 5.25182 256.085 7.59639 258.802C9.94097 261.426 12.6607 263.487 15.8493 264.799C19.038 266.111 22.4141 266.86 25.9778 266.86C31.0421 266.86 34.8872 265.829 37.4194 263.862C39.9515 261.894 41.7334 259.458 42.5775 256.459H44.6407V265.267H58.1454V225.444H24.3835V239.593H43.3277C43.3277 243.529 42.2023 246.714 39.8577 249.057C37.5132 251.4 34.2308 252.618 29.823 252.618C19.882 252.618 15.0053 246.527 15.0053 234.44V124.06C15.0053 117.22 16.3182 112.441 19.0379 109.63C21.7576 106.819 25.2276 105.413 29.354 105.413C33.7618 105.413 37.2318 106.632 39.6701 109.068C42.1085 111.504 43.3277 115.065 43.3277 119.843V171.192H58.1454V119.843C58.1454 115.908 57.4889 112.16 56.2698 108.693L56.0822 108.599Z" fill="black"/>
</svg>
