<?xml version="1.0" encoding="UTF-8"?><svg id="Ebene_1" xmlns="http://www.w3.org/2000/svg" viewBox="0 0 189.4254 190.2599"><defs><style>.cls-1{fill:#041c32;stroke-width:0px;}</style></defs><g id="Primary_Logo_Bridging_Gaps-logo"><path class="cls-1" d="M51.28421,65.93751h37.5774v10.0876h-13.5065v35.9408h13.5065v10.08801h-37.5774v-10.08801h13.5065v-35.9408h-13.5065v-10.0876Z"/><path class="cls-1" d="M126.84041,116.77591h1.47099v-50.8384h10.56401v56.1164h-20.728l-6.552-50.83881h-1.471v50.83881h-10.565v-56.1164h20.728l6.553,50.8384Z"/><path class="cls-1" d="M164.6194,93.66071h24.071v28.3922h-9.629v-6.28001h-1.47099c-.66901,2.071-1.87201,3.80801-3.677,5.278-1.806,1.403-4.547,2.138-8.158,2.138-2.541,0-4.948-.46799-7.22099-1.47-2.27299-.935-4.21201-2.405-5.884-4.27599-1.672-1.87-2.942-4.275-3.94499-7.081-1.00301-2.806-1.47101-6.079-1.47101-9.82v-13.1609c0-3.6075.535-6.881,1.53799-9.6868,1.07001-2.8058,2.474-5.144,4.34601-7.0814,1.87199-1.9373,4.07899-3.40701,6.62-4.3423,2.54001-1.0021,5.41501-1.4697,8.491-1.4697s6.08501.5344,8.55901,1.5365c2.541,1.0689,4.67999,2.4718,6.41901,4.3423,1.73799,1.87061,3.075,4.0084,4.01199,6.4802.936,2.4717,1.33701,5.144,1.33701,7.9498v.9353h-10.565v-.9353c0-3.34029-.869-5.94569-2.60701-7.68259-1.739-1.73701-4.213-2.6054-7.355-2.6054-3.14299,0-5.483,1.002-7.355,3.0062-1.873,2.0042-2.87601,5.4112-2.87601,10.288v11.8911c0,8.68501,3.54401,12.96,10.565,12.96,3.14301,0,5.55-.868,7.15401-2.53799,1.605-1.67001,2.474-3.942,2.474-6.747h-13.506v-10.08801l.13399.0668Z"/><path class="cls-1" d="M79.6357,177.09891h-19.123l-2.7414,12.02499h-11.0994l13.3727-56.116h19.9254l13.3728,56.116h-11.0994l-2.7414-12.02499h.1337ZM62.78611,167.0119h14.5094l-6.4858-28.726h-1.471l-6.5526,28.726Z"/><path class="cls-1" d="M110.99341,167.9469v21.177h-10.565v-56.116h21.998c2.876,0,5.416.468,7.556,1.403s3.94499,2.138,5.349,3.674c1.40401,1.537,2.474,3.274,3.21001,5.21101.735,1.937,1.069,3.94099,1.069,5.946v1.937c0,2.071-.334,4.142-1.069,6.146-.73601,2.004-1.806,3.808-3.21001,5.34399-1.40401,1.604-3.209,2.873-5.349,3.80801-2.14.93599-4.68,1.46999-7.556,1.46999h-11.433ZM110.99341,157.8589h10.364c2.34,0,4.212-.668,5.549-1.937,1.338-1.269,2.073-2.939,2.073-4.94299v-.936c0-2.004-.66899-3.674-2.073-4.94301-1.337-1.26999-3.209-1.93799-5.549-1.93799h-10.364v14.76399-.067Z"/><path class="cls-1" d="M177.9254,150.10791c0-2.27101-.87-4.209-2.60799-5.879-1.73901-1.67001-4.21201-2.47101-7.35501-2.47101-2.675,0-4.814.534-6.35199,1.67-1.53801,1.13501-2.34001,2.60501-2.34001,4.476,0,.93501.20001,1.80301.535,2.60501.401.802,1.00301,1.47,1.939,2.071.936.601,2.13901,1.136,3.677,1.67,1.53801.468,3.47701.935,5.817,1.336,5.884,1.069,10.364,2.873,13.507,5.345,3.142,2.47099,4.67999,6.213,4.67999,11.15599v.93501c0,2.60599-.46799,5.011-1.40399,7.082-.936,2.138-2.27299,3.94099-4.07899,5.411-1.73801,1.47-3.87801,2.672-6.41901,3.474-2.53999.802-5.349,1.202-8.491,1.202-3.67801,0-6.95401-.534-9.76201-1.536-2.80899-1.002-5.149-2.472-7.021-4.342-1.87199-1.871-3.276-4.009-4.27899-6.481-1.00301-2.47101-1.47101-5.21001-1.47101-8.15001v-2.405h10.564v1.938c0,3.34,1.00301,6.07899,2.942,8.08301,1.93901,2.004,5.015,3.006,9.09401,3.006,3.209,0,5.616-.668,7.15399-2.071,1.53801-1.403,2.34-3.073,2.34-4.94301,0-.93599-.133-1.804-.46799-2.606-.334-.80099-.869-1.603-1.67101-2.271-.80299-.668-1.873-1.269-3.27701-1.804-1.40399-.534-3.142-1.002-5.282-1.336-2.808-.468-5.416-1.136-7.756-1.871-2.34-.80099-4.41299-1.80299-6.15199-3.073-1.73801-1.269-3.07501-2.87199-4.078-4.81-1.00301-1.937-1.47101-4.27499-1.47101-7.08099v-.468c0-2.271.468-4.409,1.40401-6.34601.936-1.937,2.27299-3.674,3.94499-5.077,1.67101-1.47,3.744-2.539,6.084-3.341,2.40701-.80099,5.01501-1.202,7.957-1.202,3.343,0,6.285.468,8.826,1.403s4.748,2.20399,6.48601,3.808c1.73799,1.603,3.07599,3.474,3.94499,5.545s1.33701,4.27501,1.33701,6.547v2.87201h-10.564v-1.937l.06699-.134Z"/><path class="cls-1" d="M.46778,46.0288h5.28224V10.08761H.46778V0h24.60583c2.6746,0,5.0148.40084,7.0876,1.13569,2.0727.73486,3.8112,1.73694,5.2153,3.07305,1.4042,1.2693,2.474,2.80582,3.2095,4.60956.7355,1.80371,1.0698,3.74111,1.0698,5.81201v.9353c0,3.2067-.8692,5.7453-2.6745,7.6826-1.8053,1.9374-4.0787,3.2735-6.7533,4.0083v1.4698c2.7415.7348,5.0148,2.0709,6.7533,4.0751,1.7385,2.0041,2.6745,4.5427,2.6745,7.7494v.9353c0,2.0709-.3343,4.0083-1.0698,5.812-.7355,1.8038-1.8053,3.3403-3.2095,4.6764-1.4041,1.3361-3.1426,2.3382-5.2153,3.073-2.0728.7349-4.413,1.1357-7.0876,1.1357H.46778v-10.1544ZM16.38131,22.91421h7.6894c2.2733,0,4.0786-.4676,5.4828-1.4029,1.4041-.9353,2.0727-2.5386,2.0727-4.7432v-.4676c0-2.2714-.6686-3.8079-2.0727-4.7432-1.4042-.9353-3.2095-1.4029-5.4828-1.4029h-7.6894v12.8266-.0668ZM16.38131,46.0288h7.6894c2.2733,0,4.0786-.4676,5.4828-1.4697,1.4041-.9353,2.0727-2.5386,2.0727-4.81v-.4676c0-2.2714-.6686-3.8747-2.0727-4.81-1.4042-.9353-3.2095-1.4697-5.4828-1.4697h-7.6894v13.027Z"/><path class="cls-1" d="M89.46261,56.11641h-10.5645v-16.8349c0-1.2693-.33421-2.3382-1.00291-3.1399-.66859-.8016-1.8053-1.2024-3.34319-1.2024h-12.1692v21.1772h-10.5644V0h21.5301c2.87511,0,5.4159.40084,7.62241,1.2025,2.2066.80166,4.01189,1.93735,5.48289,3.34026,1.471,1.40291,2.6077,3.07305,3.3432,4.94355.8023,1.8706,1.1366,3.8747,1.1366,6.0125v1.9374c0,2.2713-.6017,4.4759-1.8721,6.4801-1.2705,2.0041-3.1426,3.5407-5.6835,4.6095v1.4698c1.8722.2004,3.3432.9352,4.4799,2.1377,1.0698,1.2025,1.6716,2.8059,1.6716,4.6764v19.3735l-.06689-.0668ZM62.31601,24.85161h10.0964c2.5408,0,4.5467-.6013,5.884-1.8038,1.3373-1.2025,2.0059-2.8726,2.0059-5.0772v-.9353c0-1.8705-.6686-3.4738-2.0059-4.8767-1.3373-1.3362-3.27631-2.071-5.884-2.071h-10.0964v14.764Z"/><path class="cls-1" d="M100.7644,0h37.578v10.08761h-13.507v35.9412h13.507v10.0876h-37.578v-10.0876h13.507V10.08761h-13.507V0Z"/><path class="cls-1" d="M147.7684,0h20.394c6.953,0,12.10201,1.60333,15.51201,4.87679,3.343,3.20665,5.082,8.21702,5.082,15.03122v16.3673c0,6.8141-1.672,11.8245-5.082,15.0311-3.343,3.2067-8.55901,4.8768-15.51201,4.8768h-20.394v-10.1544h5.282V10.08761h-5.282V0ZM168.1624,46.0288c3.677,0,6.285-.8684,7.75601-2.6054,1.47099-1.7369,2.20599-4.4759,2.20599-8.1502v-15.3652c0-3.2067-.735-5.6117-2.20599-7.2818-1.47101-1.6701-4.07901-2.4718-7.75601-2.4718h-4.48v35.9412h4.48v-.0668Z"/><path class="cls-1" d="M39.9845,77.42541c-.9361-2.4718-2.2734-4.6764-4.0118-6.4801-1.7385-1.8706-3.8781-3.2735-6.4189-4.3424-2.5409-1.0689-5.3491-1.5365-8.5586-1.5365s-5.9508.4676-8.4917,1.4697c-2.5408,1.0021-4.74733,2.47179-6.61951,4.3424-1.87219,1.93729-3.27634,4.2755-4.34616,7.0813-1.06982,2.8058-1.53784,6.0125-1.53784,9.6868v79.96629c0,3.74101.46806,7.01401,1.47101,9.82001,1.00296,2.806,2.27335,5.144,3.94494,7.08099,1.67159,1.871,3.61068,3.341,5.88406,4.276,2.2734.935,4.6804,1.47,7.2212,1.47,3.6107,0,6.3521-.735,8.1574-2.138s3.0758-3.14,3.6775-5.278h1.4711v6.28h9.6283v-28.392h-24.0709v10.08701h13.5065c0,2.806-.8024,5.077-2.474,6.748-1.6716,1.67-4.0118,2.53799-7.1544,2.53799-7.0876,0-10.5645-4.342-10.5645-12.95999v-78.69671c0-4.8767.9361-8.2838,2.8751-10.28799,1.9391-2.0041,4.413-3.0062,7.355-3.0062,3.1426,0,5.6166.8685,7.355,2.6054,1.7385,1.7369,2.6078,4.2755,2.6078,7.6826v36.60889h10.5644v-36.60889c0-2.8058-.468-5.478-1.3373-7.94981l-.1337-.0668Z"/></g></svg>