<?xml version="1.0" encoding="UTF-8"?><svg id="Ebene_1" xmlns="http://www.w3.org/2000/svg" viewBox="0 0 566.92913 184.4896"><defs><style>.cls-1{fill:#041c32;stroke-width:0px;}</style></defs><g id="Primary_Logo_Bridging_Gaps-logo"><polygon class="cls-1" points="419.12812 69.3186 399.27765 69.3186 399.27765 16.49466 419.12812 16.49466 419.12812 1.66865 363.89994 1.66865 363.89994 16.49466 383.75041 16.49466 383.75041 69.3186 363.89994 69.3186 363.89994 84.14461 419.12812 84.14461 419.12812 69.3186"/><polygon class="cls-1" points="450.3791 9.42535 452.54128 9.42535 462.17119 84.14461 492.63637 84.14461 492.63637 1.66865 477.10913 1.66865 477.10913 76.38799 474.94687 76.38799 465.31568 1.66865 434.85178 1.66865 434.85178 84.14461 450.3791 84.14461 450.3791 9.42535"/><path class="cls-1" d="M512.8797,77.37031c2.45759,2.74922,5.30675,4.90939,8.64767,6.28399,3.34221,1.4727,6.87964,2.16009,10.61342,2.16009,5.30675,0,9.33586-1.08008,11.98988-3.14192,2.65273-2.16017,4.42205-4.71296,5.40428-7.7567h2.16226v9.22932h14.15078v-41.72881h-35.37771l-.19643-.09826v14.82609h19.85047c0,4.12383-1.27627,7.46217-3.63496,9.91679-2.35869,2.45453-5.89741,3.73105-10.51589,3.73105-10.3181,0-15.52595-6.28391-15.52595-19.04801v-17.47705c0-7.16757,1.47407-12.17505,4.22562-15.1207,2.75155-2.94557,6.19008-4.41835,10.80985-4.41835,4.61856,0,8.25481,1.27635,10.80994,3.8293,2.55512,2.55271,3.83139,6.38201,3.83139,11.29131v1.37461h15.52724v-1.37461c0-4.12375-.58929-8.05114-1.96446-11.68409-1.37646-3.63287-3.34221-6.77479-5.89741-9.52401-2.55512-2.74922-5.69961-4.81113-9.4334-6.38209-3.63625-1.47278-8.0583-2.25826-12.57926-2.25826-4.51958,0-8.74649.6873-12.48036,2.16009-3.73378,1.37461-6.97717,3.5347-9.72872,6.38209-2.75163,2.84739-4.81499,6.28391-6.38788,10.40766-1.47399,4.12383-2.25979,8.93496-2.25979,14.23696v19.34254c0,5.49843.68819,10.30957,2.16226,14.43339,1.47399,4.12383,3.34092,7.65836,5.79714,10.40758Z"/><path class="cls-1" d="M376.77324,100.24778l-19.65533,82.47644h16.31304l4.02919-17.67372h27.91006l4.02911,17.67372h16.31304l-19.65525-82.47644h-29.28387ZM380.80235,150.22465l9.62991-42.22025h2.16226l9.53229,42.22025h-21.32446Z"/><path class="cls-1" d="M487.42851,107.70987c-2.06336-2.25826-4.71738-4.02557-7.86179-5.40018-3.14449-1.37461-6.87964-2.06191-11.10526-2.06191h-32.33075v82.47644h15.52724v-31.12569h16.80351c4.22562,0,7.96077-.78451,11.10526-2.15961,3.14441-1.37517,5.79843-3.24074,7.86179-5.59685,2.06336-2.25842,3.63633-4.9085,4.71738-7.85519,1.08113-2.94541,1.5716-5.98891,1.5716-9.03265v-2.84731c0-2.94565-.49047-5.89121-1.5716-8.73861-1.08105-2.84731-2.65402-5.40018-4.71738-7.65844ZM478.09265,126.65971c0,2.94565-1.08113,5.40082-3.04688,7.2651-1.96446,1.86556-4.71609,2.84779-8.15592,2.84779h-15.23191v-21.60064h15.23191c3.43982,0,6.19145.98183,8.15592,2.84747,2.06465,1.8654,3.04688,4.3201,3.04688,7.26566v1.37461Z"/><path class="cls-1" d="M560.04957,141.39245c-4.61856-3.6336-11.2028-6.28367-19.85047-7.85527-3.43982-.58937-6.28898-1.27627-8.55006-1.96317-2.25979-.7858-4.02919-1.57128-5.40428-2.45493-1.37646-.88373-2.26116-1.86556-2.85045-3.04374-.49184-1.17826-.7858-2.45469-.7858-3.82922,0-2.74922,1.17866-4.90939,3.43982-6.57852,2.25979-1.66913,5.40428-2.45453,9.33586-2.45453,4.61848,0,8.25473,1.17818,10.80985,3.63279,2.55512,2.45469,3.83268,5.302,3.83268,8.64027l-.09882.19643v2.84731h15.52724v-4.22192c0-3.33827-.68827-6.57844-1.96583-9.62218s-3.24331-5.79296-5.79843-8.1494c-2.5552-2.35652-5.79722-4.22192-9.53237-5.59653-3.73378-1.37461-8.0583-2.06207-12.97083-2.06207-4.32444,0-8.15712.58921-11.69455,1.76739-3.43974,1.17826-6.4867,2.74922-8.94292,4.90931-2.4563,2.06191-4.42205,4.6147-5.79851,7.46217-1.37517,2.84739-2.06336,5.98939-2.06336,9.32766v.6873c0,4.12383.68819,7.56019,2.16226,10.40806,1.47399,2.84651,3.43982,5.20383,5.99494,7.06947,2.55383,1.86556,5.60071,3.33827,9.04053,4.51564,3.43982,1.07976,7.2725,2.06199,11.39923,2.75026,3.14449.49047,5.69961,1.17737,7.76297,1.96317,2.06465.7858,3.63625,1.66913,4.81628,2.65136,1.17866.98094,1.96446,2.15961,2.45622,3.33827.49176,1.17737.68819,2.45365.68819,3.82874,0,2.74898-1.17866,5.20391-3.43974,7.26598-2.25987,2.06199-5.79722,3.04422-10.51461,3.04422-5.99494,0-10.51589-1.47399-13.36498-4.4194-2.85053-2.94541-4.32452-6.97057-4.32452-11.88044v-2.84651h-15.52724v3.5347c0,4.31921.68819,8.34575,2.16218,11.97805,1.47407,3.63231,3.53872,6.77543,6.29035,9.52441,2.75155,2.7489,6.19,4.9085,10.3181,6.3812,4.12672,1.4727,8.94292,2.2585,14.34721,2.2585,4.61856,0,8.74657-.58929,12.48036-1.76666,3.73515-1.17874,6.87964-2.94541,9.43476-5.10638,2.65273-2.15961,4.61848-4.81097,5.99494-7.95281,1.37517-3.04422,2.06336-6.57771,2.06336-10.40774v-1.3738c0-7.2659-2.26108-12.76514-6.87956-16.39745Z"/><path class="cls-1" d="M54.24587,7.85439c-2.0636-1.96374-4.61872-3.43652-7.66512-4.51661-3.0464-1.08-6.4859-1.66913-10.41683-1.66913H0v14.82601h7.76346v52.82394H0v14.92427h36.16391c3.93094,0,7.37044-.58913,10.41683-1.66921,3.0464-1.08,5.60152-2.55271,7.66512-4.51653,2.06376-1.96374,3.63617-4.22192,4.71714-6.87304,1.08097-2.65096,1.57241-5.49827,1.57241-8.54202v-1.37461c0-4.71296-1.37582-8.44408-3.93094-11.38965-2.55504-2.94549-5.8962-4.90922-9.9254-5.98923v-2.16017c3.93086-1.08008,7.27202-3.04374,9.9254-5.89121,2.6533-2.84723,3.93094-6.57828,3.93094-11.29131v-1.37461c0-3.04374-.49144-5.89105-1.57241-8.5421s-2.65338-4.90931-4.71714-6.77479ZM45.79454,60.08912c0,3.33835-.98263,5.69478-3.0464,7.06939-2.06376,1.47278-4.71698,2.16009-8.0583,2.16009h-11.30121v-19.14627h11.30121c3.34132,0,5.99454.78556,8.0583,2.16017s3.0464,3.73105,3.0464,7.06931v.6873ZM45.79454,26.31319c0,3.24025-.98263,5.59669-3.0464,6.9713s-4.71698,2.06191-8.0583,2.06191h-11.30121v-18.75349h11.30121c3.34132,0,5.99454.6873,8.0583,2.06191s3.0464,3.63279,3.0464,6.97106v.6873Z"/><path class="cls-1" d="M126.37774,8.34526c-2.16194-2.06191-4.81532-3.73105-8.0583-4.90922-3.24299-1.17826-6.97733-1.76739-11.20288-1.76739h-31.64368v82.47596h15.527v-31.1248h17.88544c2.26019,0,3.93094.58905,4.91357,1.76739.98279,1.1781,1.47415,2.74922,1.47415,4.61462v24.7428h15.52691l.09834.09826v-28.47384c0-2.74922-.88454-5.10566-2.45679-6.87304-1.67074-1.76739-3.83268-2.84739-6.58431-3.142v-2.16001c3.73435-1.57104,6.48598-3.82922,8.35315-6.77487,1.86701-2.94557,2.75171-6.18566,2.75171-9.52393v-2.84739c0-3.142-.49184-6.08756-1.67074-8.8367-1.08097-2.74922-2.75163-5.20391-4.91357-7.26582ZM117.33664,28.08058c0,3.24017-.98263,5.69478-2.94798,7.46209-1.96559,1.76739-4.91373,2.65104-8.64808,2.65104h-14.83889v-21.69905h14.83889c3.83268,0,6.68249,1.08008,8.64808,3.04374,1.96535,2.06191,2.94798,4.41835,2.94798,7.16757v1.37461Z"/><polygon class="cls-1" points="147.40687 16.49466 167.25726 16.49466 167.25726 69.3186 147.40687 69.3186 147.40687 84.14461 202.63497 84.14461 202.63497 69.3186 182.78458 69.3186 182.78458 16.49466 202.63497 16.49466 202.63497 1.66865 147.40687 1.66865 147.40687 16.49466"/><path class="cls-1" d="M246.56274,1.66865h-29.97342v15.02244h7.76434v52.62751h-7.76434v14.92427h29.97342c10.22056,0,17.88601-2.45469,22.79845-7.16757,5.01271-4.71296,7.46901-12.07679,7.46901-22.09183v-24.05541c0-10.01504-2.55512-17.37888-7.46901-22.09183-5.01134-4.81113-12.57789-7.16757-22.79845-7.16757ZM261.20535,53.51068c0,5.40034-1.08113,9.42591-3.24339,11.9787-2.16218,2.55287-5.99494,3.82922-11.39923,3.82922v.09826h-6.58423V16.59292h6.58423c5.40428,0,9.23705,1.1781,11.39923,3.63279,2.16226,2.45469,3.24339,5.98939,3.24339,10.70235v22.58263Z"/><path class="cls-1" d="M347.29286,18.65362c-1.37638-3.63287-3.34221-6.87304-5.89733-9.52409-2.55512-2.74914-5.69961-4.81105-9.43348-6.38201-3.73378-1.57096-7.86187-2.25826-12.57926-2.25826-4.71601,0-8.74521.6873-12.48036,2.16009-3.73378,1.47278-6.97717,3.63287-9.72872,6.38209-2.75155,2.84739-4.81491,6.28391-6.38788,10.40774-1.57152,4.12367-2.25979,8.8367-2.25979,14.23688v117.52824c0,5.49787.68827,10.31021,2.16226,14.43291,1.47399,4.12407,3.34092,7.56131,5.79722,10.40782,2.45751,2.7489,5.30667,4.90987,8.64759,6.28367,3.34229,1.37509,6.87964,2.16089,10.61342,2.16089,5.30675,0,9.33586-1.07976,11.98988-3.14184,2.65273-2.06207,4.52095-4.61454,5.40428-7.75766h2.16226v9.23037h14.15086v-41.72865h-35.37771v14.82585h19.85176c0,4.12278-1.18003,7.46113-3.63625,9.91606-2.45759,2.45485-5.89612,3.73113-10.51589,3.73113-10.41571,0-15.52595-6.3812-15.52595-19.04745V34.85424c0-7.16749,1.37509-12.17505,4.22562-15.12054,2.84908-2.94565,6.48541-4.41835,10.80985-4.41835,4.61848,0,8.25473,1.27635,10.80985,3.82914,2.5552,2.55287,3.83276,6.28391,3.83276,11.29139v53.80577h15.52595V30.43589c0-4.12375-.6869-8.05122-1.96446-11.68401l-.19651-.09826Z"/></g></svg>